<svg width="19" height="19" viewBox="0 0 19 19" fill="none" xmlns="http://www.w3.org/2000/svg">
<g clip-path="url(#clip0)">
<path d="M17.858 8.16638C17.7803 8.15376 17.7016 8.14794 17.6229 8.14896H4.21874L4.51101 8.01302C4.79671 7.87779 5.05662 7.69376 5.2791 7.46924L9.03795 3.71039C9.533 3.23781 9.61618 2.47759 9.23507 1.90913C8.79151 1.30337 7.94088 1.17185 7.33508 1.61541C7.28614 1.65126 7.23962 1.69035 7.19591 1.7324L0.398709 8.5296C-0.132492 9.06021 -0.132959 9.92095 0.397647 10.4521C0.397987 10.4525 0.398369 10.4529 0.398709 10.4532L7.19591 17.2504C7.72753 17.7805 8.58827 17.7794 9.11845 17.2477C9.16017 17.2059 9.19913 17.1614 9.23507 17.1145C9.61618 16.546 9.533 15.7858 9.03795 15.3132L5.2859 11.5476C5.08644 11.3479 4.85712 11.1805 4.60618 11.0514L4.19834 10.8678H17.548C18.2425 10.8936 18.8518 10.4085 18.9823 9.72591C19.1024 8.9848 18.5991 8.2866 17.858 8.16638Z" fill="#F2A950"/>
</g>
<defs>
<clipPath id="clip0">
<rect width="19" height="19" fill="white"/>
</clipPath>
</defs>
</svg>
