<svg width="52" height="52" viewBox="0 0 52 52" fill="none" xmlns="http://www.w3.org/2000/svg">
<g clip-path="url(#clip0)">
<path d="M39.3872 1.99602C35.8286 0.708929 31.0739 0 26.0001 0C20.9263 0 16.1715 0.709349 12.613 1.997C9.50508 3.12192 7.64964 4.58995 7.64964 5.92554C7.64964 7.26112 9.50508 8.72888 12.6131 9.85324C16.1715 11.141 20.9259 11.8504 26.0001 11.8504C31.0743 11.8504 35.8286 11.141 39.3872 9.85324C42.4951 8.72831 44.3505 7.26028 44.3505 5.92456C44.3505 4.58883 42.4951 3.12136 39.3872 1.99602Z" fill="#F2A950"/>
<path d="M26.0001 40.7974C18.8079 40.7974 11.2833 39.3115 7.63913 36.4968V46.0742C7.63913 47.4102 9.50087 48.879 12.6084 50.0035C16.1659 51.2908 20.927 51.9997 26.0027 51.9997C28.9888 52.0108 31.9695 51.7439 34.9061 51.2028C40.47 50.1352 44.361 48.0263 44.361 46.0742V36.4968C40.7169 39.3115 33.1922 40.7974 26.0001 40.7974ZM29.2238 47.3039H22.7764C22.1572 47.3039 21.6551 46.8019 21.6551 46.1827C21.6551 45.5634 22.1572 45.0614 22.7764 45.0614H29.2238C29.843 45.0614 30.345 45.5634 30.345 46.1827C30.345 46.8019 29.843 47.3039 29.2238 47.3039Z" fill="#F2A950"/>
<path d="M26.0001 27.4453C18.8079 27.4453 11.2833 25.9594 7.63913 23.1447V32.6292C7.63913 33.9652 9.50087 35.4341 12.6084 36.5586C16.1659 37.846 20.927 38.5547 26.0027 38.5547C31.0785 38.5547 35.8355 37.846 39.3931 36.5586C42.5005 35.4342 44.361 33.9654 44.361 32.6292V23.1446C40.7169 25.9593 33.1922 27.4453 26.0001 27.4453ZM29.2238 33.7084H22.7764C22.1572 33.7084 21.6551 33.2064 21.6551 32.5872C21.6551 31.9679 22.1572 31.4659 22.7764 31.4659H29.2238C29.843 31.4659 30.345 31.9679 30.345 32.5872C30.345 33.2064 29.843 33.7084 29.2238 33.7084Z" fill="#F2A950"/>
<path d="M26.0001 14.0935C18.8079 14.0935 11.2833 12.6074 7.63913 9.79268V19.2773C7.63913 20.6133 9.50087 22.0823 12.6084 23.2067C16.1659 24.494 20.927 25.2028 26.0027 25.2028C31.0785 25.2028 35.8355 24.494 39.3931 23.2067C42.5005 22.0823 44.361 20.6133 44.361 19.2773V9.79268C40.7169 12.6074 33.1922 14.0935 26.0001 14.0935ZM29.2238 20.5334H22.7764C22.1572 20.5334 21.6551 20.0314 21.6551 19.4121C21.6551 18.7929 22.1572 18.2909 22.7764 18.2909H29.2238C29.843 18.2909 30.345 18.7929 30.345 19.4121C30.345 20.0314 29.843 20.5334 29.2238 20.5334Z" fill="#F2A950"/>
</g>
<defs>
<clipPath id="clip0">
<rect width="52" height="52" fill="white"/>
</clipPath>
</defs>
</svg>
