<svg width="52" height="52" viewBox="0 0 52 52" fill="none" xmlns="http://www.w3.org/2000/svg">
<path d="M13 20.4247H1.86025C0.837657 20.4247 0.0108787 21.2515 0 22.2849V50.1343C0 51.1678 0.837657 51.9946 1.86025 51.9946H13C14.0335 51.9946 14.8603 51.1569 14.8603 50.1343V22.2849C14.8603 21.2515 14.0226 20.4247 13 20.4247Z" fill="white"/>
<path d="M31.5699 0.00544739H20.4302C19.4076 0.00544739 18.5699 0.832226 18.5699 1.85482V50.1343C18.5699 51.1678 19.4076 51.9946 20.4302 51.9946H31.5699C32.6034 51.9946 33.4302 51.1569 33.4302 50.1343V1.8657C33.4302 0.832226 32.5925 0.00544739 31.5699 0.00544739Z" fill="white"/>
<path d="M50.1398 14.8548H39C37.9665 14.8548 37.1398 15.6816 37.1398 16.7151V50.1343C37.1398 51.1678 37.9774 51.9946 39 51.9946H50.1398C51.1732 51.9946 52 51.1569 52 50.1343V16.7151C52 15.6816 51.1623 14.8548 50.1398 14.8548Z" fill="white"/>
</svg>
