<svg width="52" height="52" viewBox="0 0 52 52" fill="none" xmlns="http://www.w3.org/2000/svg">
<g clip-path="url(#clip0)">
<path d="M26.7679 35.1441V34.9415C25.7325 34.9303 24.7421 34.874 23.7855 34.7952C23.2678 36.1345 22.5363 37.3837 21.6247 38.4979C23.3466 38.7792 25.091 38.9368 26.8354 38.9593L26.7679 35.1441Z" fill="#F2A950"/>
<path d="M22.2099 27.6938C21.3771 23.7098 18.4397 20.4685 14.5344 19.2418C13.454 18.9154 12.3399 18.7466 11.2144 18.7466C8.42337 18.7579 5.72233 19.7933 3.6628 21.6615C-0.917699 25.8256 -1.24407 32.927 2.92002 37.5075C7.0841 42.088 14.1856 42.4144 18.7661 38.2503C21.107 36.1232 22.4462 33.1183 22.435 29.9559C22.435 29.2019 22.3562 28.4366 22.2099 27.6938ZM11.2144 28.4478C13.1164 28.4478 14.7933 29.7083 15.311 31.5427C15.9412 33.8049 14.6357 36.1457 12.3624 36.7872V37.7776C12.3624 38.3966 11.8559 38.9031 11.2369 38.9031C10.618 38.9031 10.1115 38.3966 10.1115 37.7776V36.7985C8.25455 36.2921 6.97156 34.6152 6.96031 32.6907C6.96031 32.0717 7.46675 31.5653 8.08574 31.5653C8.70472 31.5653 9.21117 32.0717 9.21117 32.6907C9.21117 33.7936 10.1115 34.6827 11.2144 34.6827C12.3174 34.6827 13.2064 33.7823 13.2064 32.6794C13.2064 31.5765 12.3061 30.6874 11.2032 30.6874C9.27869 30.6874 7.6018 29.3932 7.10661 27.5362C6.51013 25.2854 7.86065 22.9445 10.1228 22.3367V21.8528C10.1228 21.2338 10.6292 20.7274 11.2482 20.7274C11.8672 20.7274 12.3736 21.2338 12.3736 21.8528V22.3592C14.2081 22.8769 15.4686 24.5538 15.4686 26.4558C15.4686 27.0748 14.9621 27.5812 14.3431 27.5812C13.7241 27.5812 13.2177 27.0748 13.2177 26.4558C13.2177 25.3529 12.3174 24.4525 11.2144 24.4525C10.1115 24.4525 9.22242 25.3416 9.21117 26.4558C9.21117 27.5587 10.1115 28.4478 11.2144 28.4478Z" fill="#F2A950"/>
<path d="M26.7341 32.6794L26.6666 28.6954C25.9688 28.6842 25.2823 28.6616 24.6295 28.6166C24.6633 29.0668 24.6858 29.5057 24.6858 29.9446C24.6858 30.8225 24.5958 31.7116 24.427 32.5781C25.1698 32.6457 25.9463 32.6794 26.7341 32.6794Z" fill="#F2A950"/>
<path d="M39.0576 14.0536C38.281 14.4587 37.4595 14.7851 36.6154 15.0327C34.0832 15.798 30.7632 16.2144 27.2968 16.2144C23.9768 16.2144 20.8144 15.8317 18.3722 15.1227C17.5281 14.8976 16.7178 14.5825 15.9413 14.1886L16.02 17.3623C17.2918 17.835 18.4735 18.5103 19.5426 19.3543C19.5764 19.3656 19.5989 19.3656 19.6327 19.3769C21.7935 19.9283 24.517 20.2209 27.2968 20.2209C30.5156 20.2209 33.678 19.8158 35.9626 19.1293C38.4048 18.3865 38.945 17.6099 38.945 17.4636C38.945 17.3061 38.9338 17.1598 39.0576 17.0022V14.0536Z" fill="#F2A950"/>
<path d="M35.9514 9.58562C33.6667 8.88785 30.5043 8.49395 27.2856 8.49395C24.0443 8.49395 21.0057 8.88785 18.7323 9.58562C16.3577 10.3059 15.84 11.0149 15.8287 11.24C15.8287 11.24 15.84 11.24 15.84 11.2625C15.8962 11.5101 16.5715 12.2754 18.9912 12.9732C21.2308 13.6259 24.1794 13.9861 27.2856 13.9861C30.5043 13.9861 33.6555 13.5921 35.9401 12.9056C38.3823 12.1741 38.9338 11.3976 38.9338 11.24C38.9338 11.0937 38.3936 10.3284 35.9514 9.58562Z" fill="#F2A950"/>
<path d="M51.9775 40.7262V37.3499C51.2235 37.7326 50.4357 38.059 49.6141 38.3066C47.0931 39.0719 43.7956 39.4883 40.318 39.4883C37.2344 39.4883 34.2295 39.1394 31.8661 38.5204C30.8982 38.2728 29.9641 37.9352 29.0638 37.4963L29.12 40.76C29.12 40.7713 29.12 40.7713 29.12 40.7825C29.12 40.9513 29.6152 41.7054 31.9899 42.4369C34.2407 43.1234 37.2794 43.506 40.5319 43.506C43.7731 43.506 46.823 43.1121 49.0964 42.4031C51.4711 41.6603 51.9888 40.8838 51.9888 40.7262H51.9775Z" fill="#F2A950"/>
<path d="M39.035 20.3335C38.2585 20.7274 37.4482 21.0537 36.6041 21.3013C34.0719 22.0666 30.7519 22.483 27.2743 22.483C25.5637 22.483 23.8643 22.3705 22.1761 22.1567C23.0877 23.4171 23.763 24.8352 24.1906 26.3433C25.1585 26.4108 26.2052 26.4558 27.2856 26.4558C27.3193 26.4558 27.3643 26.4558 27.3981 26.4558C29.2438 24.43 34.2069 23.4171 39.035 23.2821V20.3335Z" fill="#F2A950"/>
<path d="M49.5353 32.0829C47.0256 32.8257 43.7619 33.2309 40.3406 33.2309C37.0205 33.2309 33.8581 32.8482 31.4159 32.1392C30.5718 31.9029 29.7503 31.5878 28.9625 31.1939L29.0075 33.7823L29.0187 34.7277C29.8966 35.8194 34.0944 37.2262 40.3293 37.2262C43.5818 37.2262 46.6542 36.8435 48.9613 36.1457C51.3923 35.403 51.9212 34.6377 51.9212 34.4801C51.9212 34.3563 51.9887 34.2213 51.9887 34.1087H52V31.1263C51.2122 31.5202 50.3906 31.8579 49.5353 32.0829Z" fill="#F2A950"/>
<path d="M49.0063 26.6246C46.7105 25.9268 43.5593 25.5555 40.3405 25.5555H40.1492C37.1556 25.5555 34.3082 25.8931 32.1249 26.5121C29.7953 27.1648 28.9962 27.9076 28.8949 28.2115C28.8837 28.234 28.8837 28.2452 28.8837 28.2565C28.8837 28.2565 28.8837 28.2565 28.9062 28.3015C28.9737 28.5378 29.6377 29.3031 32.0574 30.0122C34.297 30.6536 37.2456 31.0138 40.3518 31.0138C43.5593 31.0138 46.5979 30.6424 48.9051 29.9559C51.4035 29.2131 51.9662 28.4366 51.9775 28.2677V28.2565C51.9662 28.0877 51.4035 27.3449 49.0063 26.6246Z" fill="#F2A950"/>
</g>
<defs>
<clipPath id="clip0">
<rect width="52" height="52" fill="white"/>
</clipPath>
</defs>
</svg>
