<svg width="24" height="24" viewBox="0 0 24 24" fill="none" xmlns="http://www.w3.org/2000/svg">
<path d="M18.9224 12.75C18.9224 14.6252 18.1904 16.3899 16.8604 17.7193C15.5311 19.0493 13.7664 19.7812 11.8911 19.7812C10.0159 19.7812 8.25125 19.0493 6.92188 17.7193C5.59185 16.3899 4.85989 14.6252 4.85989 12.75C4.85989 10.8748 5.59185 9.11011 6.92188 7.78073C8.25125 6.4507 10.0159 5.71875 11.8911 5.71875C13.077 5.71875 14.2278 6.01608 15.2605 6.58463L12.5167 9.9375H23.3588L20.648 0L17.9577 3.28734C16.1401 2.11594 14.0562 1.5 11.8911 1.5C8.88571 1.5 6.06013 2.67005 3.93636 4.79522C1.81119 6.91898 0.641144 9.74456 0.641144 12.75C0.641144 15.7554 1.81119 18.581 3.93636 20.7048C6.06018 22.83 8.88571 24 11.8911 24C14.8966 24 17.7222 22.83 19.8459 20.7048C21.9711 18.581 23.1411 15.7554 23.1411 12.75V12.0469H18.9224V12.75Z" fill="#F2A950"/>
</svg>
