<svg width="52" height="52" viewBox="0 0 52 52" fill="none" xmlns="http://www.w3.org/2000/svg">
<g clip-path="url(#clip0)">
<path d="M42.1571 25.4082C47.4865 20.6171 47.923 12.4129 43.1319 7.08351C38.7377 2.19559 31.3826 1.36521 26.0093 5.1505C20.1517 1.01656 12.0521 2.41388 7.91812 8.27135C4.12489 13.6461 4.9519 21.0088 9.84298 25.4081C3.76569 28.6116 -0.0273245 34.9275 0.00020608 41.7973V47.3687C0.00020608 48.3944 0.831672 49.2258 1.85738 49.2258H50.1428C51.1685 49.2258 52 48.3944 52 47.3687V41.7973C52.0274 34.9275 48.2344 28.6116 42.1571 25.4082ZM33.4285 6.51179C38.5496 6.50613 42.7058 10.653 42.7115 15.7741C42.7155 19.4265 40.5753 22.7409 37.2449 24.2399C37.1019 24.3049 36.9589 24.3643 36.8141 24.4257C36.3558 24.6106 35.8831 24.7577 35.4008 24.8659C35.308 24.8863 35.215 24.8974 35.1204 24.916C34.5815 25.0193 34.0347 25.0746 33.4861 25.0813C33.2391 25.0813 32.9902 25.0627 32.7432 25.0405C32.6504 25.0405 32.5574 25.0405 32.4646 25.0219C31.4091 24.8976 30.3823 24.595 29.4282 24.1268C29.3929 24.11 29.352 24.1119 29.3168 24.0971C29.131 24.008 28.9454 23.9299 28.7801 23.8296C28.795 23.811 28.8042 23.7906 28.819 23.772C29.6706 22.6778 30.342 21.4547 30.808 20.1488L30.8655 19.9927C31.0774 19.369 31.2419 18.7302 31.3577 18.0817C31.3745 17.987 31.3874 17.896 31.4023 17.7939C31.5097 17.1337 31.5662 16.4663 31.5713 15.7974C31.566 15.1298 31.5095 14.4637 31.4023 13.8047C31.3874 13.7081 31.3745 13.6189 31.3577 13.5169C31.2419 12.8684 31.0774 12.2296 30.8655 11.6058L30.808 11.4498C30.342 10.1439 29.6705 8.92077 28.819 7.82651C28.8041 7.80791 28.7949 7.78756 28.7801 7.76895C30.191 6.94586 31.7951 6.5119 33.4285 6.51179ZM9.28584 15.7975C9.27267 10.6825 13.4085 6.52529 18.5235 6.51212C20.9211 6.50592 23.2278 7.42988 24.9582 9.08955C25.066 9.19357 25.1718 9.29749 25.2758 9.40522C25.5947 9.7394 25.8888 10.0963 26.1561 10.473C26.2378 10.5882 26.3121 10.7108 26.3882 10.8296C26.6477 11.2291 26.8756 11.6483 27.0697 12.0832C27.1162 12.1891 27.1514 12.2968 27.1922 12.4026C27.388 12.8836 27.5421 13.3807 27.6529 13.8882C27.6659 13.944 27.6696 13.9997 27.6807 14.0572C27.916 15.2104 27.916 16.3992 27.6807 17.5523C27.6696 17.6099 27.6658 17.6656 27.6529 17.7213C27.5422 18.2288 27.3881 18.7259 27.1922 19.207C27.1514 19.3128 27.1161 19.4206 27.0697 19.5263C26.8754 19.9606 26.6475 20.3791 26.3882 20.7781C26.312 20.8969 26.2378 21.0195 26.1561 21.1347C25.8889 21.5115 25.5947 21.8683 25.2758 22.2025C25.1717 22.3102 25.0659 22.4142 24.9582 22.5181C24.2063 23.2347 23.3394 23.8198 22.3935 24.249C22.2432 24.3176 22.0908 24.3809 21.9367 24.4347C21.4891 24.6124 21.0284 24.7552 20.5588 24.8618C20.4418 24.8878 20.321 24.9026 20.2022 24.9231C19.6979 25.017 19.1866 25.0685 18.6738 25.0773H18.4695C17.9567 25.0686 17.4453 25.017 16.9411 24.9231C16.8222 24.9026 16.7015 24.8878 16.5845 24.8618C16.1148 24.7552 15.6541 24.6124 15.2065 24.4347C15.0523 24.3735 14.9001 24.3104 14.7497 24.249C11.4271 22.7488 9.29008 19.443 9.28584 15.7975ZM33.4285 45.5116H3.71444V41.7974C3.68723 35.5042 7.65229 29.8855 13.5906 27.8021C16.7785 29.1293 20.3643 29.1293 23.5523 27.8021C24.1724 28.0286 24.7766 28.296 25.3612 28.6025C25.7475 28.8012 26.1041 29.0278 26.4755 29.2562C26.7169 29.4066 26.962 29.5533 27.1942 29.7186C27.5526 29.9731 27.8906 30.2498 28.2231 30.5339C28.4367 30.7196 28.6483 30.9053 28.8489 31.091C29.1553 31.3807 29.4431 31.6871 29.7198 32.0011C29.9185 32.2276 30.1117 32.4579 30.2956 32.6956C30.5389 33.0076 30.771 33.3271 30.9864 33.6557C31.1722 33.9343 31.3375 34.224 31.5008 34.5137C31.6866 34.8331 31.8574 35.1526 32.0133 35.485C32.1694 35.8175 32.3068 36.1815 32.4404 36.5362C32.5574 36.8445 32.6819 37.1509 32.7784 37.4647C32.9085 37.8955 32.9994 38.3413 33.0904 38.787C33.1461 39.0506 33.2186 39.3088 33.2594 39.5762C33.3694 40.3115 33.4259 41.0538 33.4284 41.7974V45.5116H33.4285ZM48.2856 45.5116H37.1428V41.7974C37.1428 41.2161 37.1094 40.6403 37.0574 40.0702C37.0425 39.9031 37.0166 39.7378 36.998 39.5707C36.9478 39.1602 36.8903 38.7536 36.8123 38.3505C36.7789 38.1785 36.7436 38.0057 36.7064 37.8323C36.6173 37.4188 36.5139 37.009 36.3963 36.6029C36.3573 36.4692 36.3219 36.3336 36.2811 36.2018C35.7611 34.5394 35.0075 32.9594 34.0433 31.5089L33.9708 31.403C33.6515 30.9288 33.3103 30.4701 32.9475 30.0269L32.9346 30.0102C32.5632 29.5496 32.1601 29.102 31.7367 28.6786C31.7609 28.6786 31.7869 28.6786 31.8129 28.6786C32.337 28.7474 32.8647 28.7847 33.3934 28.79H33.4955C33.9848 28.7858 34.4732 28.7541 34.959 28.6953C35.1112 28.6767 35.2617 28.6489 35.414 28.6247C35.809 28.5641 36.199 28.4854 36.584 28.3889C36.6935 28.361 36.805 28.335 36.9164 28.3035C37.4216 28.166 37.9178 27.9973 38.4021 27.7984C44.3447 29.8797 48.3134 35.5009 48.2858 41.7975V45.5116H48.2856Z" fill="#F2A950"/>
</g>
<defs>
<clipPath id="clip0">
<rect width="52" height="52" fill="white"/>
</clipPath>
</defs>
</svg>
